<?xml version="1.0" encoding="UTF-8" standalone="no"?>
<svg
   width="138px"
   height="47px"
   viewBox="0 0 138 47"
   version="1.1"
   id="svg36877"
   sodipodi:docname="deski_06.svg"
   xml:space="preserve"
   inkscape:version="1.2.1 (9c6d41e410, 2022-07-14)"
   xmlns:inkscape="http://www.inkscape.org/namespaces/inkscape"
   xmlns:sodipodi="http://sodipodi.sourceforge.net/DTD/sodipodi-0.dtd"
   xmlns="http://www.w3.org/2000/svg"
   xmlns:svg="http://www.w3.org/2000/svg"><defs
     id="defs36881" /><sodipodi:namedview
     id="namedview36879"
     pagecolor="#ffffff"
     bordercolor="#000000"
     borderopacity="0.25"
     inkscape:showpageshadow="2"
     inkscape:pageopacity="0.0"
     inkscape:pagecheckerboard="0"
     inkscape:deskcolor="#d1d1d1"
     showgrid="false"
     inkscape:zoom="6.3485891"
     inkscape:cx="81.750447"
     inkscape:cy="35.125915"
     inkscape:window-width="1920"
     inkscape:window-height="1009"
     inkscape:window-x="1072"
     inkscape:window-y="841"
     inkscape:window-maximized="1"
     inkscape:current-layer="svg36877" /><path
     style="fill:#1a1a1a;stroke-width:0.104019"
     d="m 71.026591,37.761118 c 0,-6.431844 1.023692,-7.270685 7.137312,-5.848473 7.4354,1.729697 5.35865,8.158906 -2.637708,8.165745 -1.768811,0.0016 -1.768811,0.0016 -1.768811,1.919216 0,1.917705 0,1.917705 -1.365401,1.917705 -1.365392,0 -1.365392,0 -1.365392,-6.154193 z m 5.399532,1.622027 c 2.1934,-0.252005 3.31705,-1.965916 2.78849,-4.253259 -0.39395,-1.704775 -1.58009,-2.579986 -3.802332,-2.805604 -1.840278,-0.186856 -1.654897,-0.582042 -1.654897,3.527939 0,3.975857 -0.09617,3.848591 2.668739,3.530924 z m -33.155777,0.833984 c -2.834875,-0.453472 -3.151427,-0.999754 -3.151427,-5.43844 0,-3.154143 0,-3.154143 1.365392,-3.154143 1.365409,0 1.365409,0 1.365409,3.160428 0,1.803897 0.05222,3.288338 0.121813,3.458399 0.486971,1.19242 3.266254,1.507447 4.549586,0.515699 0.727099,-0.561916 0.725077,-0.551379 0.766372,-3.974661 0.03788,-3.159865 0.03788,-3.159865 0.657183,-3.159865 0.792159,0 0.938466,6.142512 0.171323,7.195326 -0.876341,1.202783 -3.356014,1.795488 -5.845593,1.397257 z M 8.8476942,39.927217 c -0.956093,-0.342366 -0.935348,-0.260749 -0.976733,-3.841541 -0.05485,-4.751986 -0.382249,-4.46113 5.0205588,-4.46113 3.394973,0 3.394973,0 3.394973,0.305083 0,0.305097 0,0.305097 -2.513565,0.313783 -3.48355,0.01203 -3.127407,-0.171132 -3.16817,1.629567 -0.03401,1.499812 -0.03401,1.499812 2.327383,1.499812 2.361341,0 2.361341,0 2.361341,0.392262 0,0.392255 0,0.392255 -2.358421,0.392255 -2.358403,0 -2.358403,0 -2.358403,1.46837 0,1.952816 -0.289845,1.792352 3.30212,1.828246 2.780098,0.0278 2.780098,0.0278 2.780098,0.326877 0,0.358069 -6.8609818,0.486678 -7.8111818,0.146424 z m 9.7972208,0.04008 c -1.292078,-0.168638 -1.336901,-0.727409 -0.05058,-0.630673 3.089761,0.232361 4.643278,-0.162018 4.643278,-1.178719 0,-0.677139 -0.556856,-1.047253 -2.792865,-1.856226 -3.277263,-1.185713 -3.980109,-2.931935 -1.627814,-4.044338 1.605856,-0.759421 6.034336,-0.912539 6.034336,-0.208624 0,0.319778 0,0.319778 -1.148173,0.262682 -2.25713,-0.11224 -3.268019,0.137727 -3.685403,0.911292 -0.299958,0.555972 0.241298,0.948651 2.413093,1.750663 6.353524,2.346261 3.614099,5.959842 -3.785878,4.993951 z m 9.655716,-3.657428 c -0.06375,-4.237861 -0.0967,-3.894127 0.348931,-3.648013 0.453162,0.250311 0.457096,0.240115 0.298516,-0.772078 -0.173628,-1.107447 0.01603,-1.585023 0.87115,-2.184935 0.214016,-0.15031 1.038348,-0.521014 1.158537,-0.521014 0.04219,0 0.09153,1.526149 0.109521,3.39145 0.03258,3.391444 0.03258,3.391444 2.569242,1.220361 2.536775,-2.171089 2.536775,-2.171089 3.397665,-2.171089 0.801608,0 0.849252,0.0107 0.691648,0.152567 -0.09313,0.08384 -1.010869,0.858598 -2.039517,1.721573 -1.028657,0.862959 -1.912972,1.618932 -1.96515,1.679916 -0.06233,0.07284 0.838079,0.896638 2.619647,2.397136 1.492974,1.257448 2.757109,2.335293 2.809197,2.395218 0.0741,0.08513 -0.280139,0.108836 -1.619355,0.108362 -1.714072,-3.87e-4 -1.714072,-3.87e-4 -4.072495,-1.936593 -2.358406,-1.936007 -2.358406,-1.936007 -2.391827,3.87e-4 -0.03349,1.936563 -0.03349,1.936563 -1.381173,1.936563 -1.347764,0 -1.347764,0 -1.404464,-3.770048 z m 25.607599,3.693898 c -1.731561,-0.340154 -1.261076,-13.870846 0.482313,-13.870846 1.368409,0 1.368409,0 1.368409,6.613929 0,7.488298 -0.170427,6.722886 1.496796,6.722886 0.692344,0 0.722557,0.0096 0.760279,0.237221 0.02354,0.141126 0.611089,-1.138961 1.450817,-3.159854 2.127113,-5.119225 2.19809,-5.20346 4.273349,-5.071304 1.474913,0.09391 1.491881,0.11596 3.614353,4.693294 0.925551,1.996096 1.718168,3.693906 1.761345,3.772894 0.0707,0.129222 -0.06855,0.141168 -1.387608,0.119011 -1.618286,-0.02722 -1.396724,0.173376 -2.362187,-2.138488 -0.414261,-0.992093 -5.012475,-0.660151 -5.433649,0.392254 -0.7969,1.991234 -0.384537,1.766303 -3.220325,1.756481 -1.377626,-0.0044 -2.639374,-0.0351 -2.803892,-0.06744 z m 10.879411,-3.43239 c -0.06142,-0.113346 -0.66233,-1.473917 -1.324047,-2.998377 -0.391782,-0.902578 -0.627136,-1.11571 -0.967875,-0.876419 -0.139087,0.09777 -1.765485,3.697523 -1.770276,3.918373 -8.29e-4,0.03597 0.926204,0.06533 2.059972,0.06533 1.597879,0 2.048088,-0.02445 2.002226,-0.108957 z M 28.052318,32.234658 c -2.178205,-1.363352 -1.658568,-2.418644 2.032054,-4.126836 1.008608,-0.466839 1.097382,-0.594615 1.097382,-1.579577 0,-0.457136 0.02835,-0.831163 0.06266,-0.831163 0.03456,0 0.516612,0.166699 1.071386,0.370461 2.040802,0.749553 2.119579,1.616947 0.211714,2.331412 -0.249702,0.09349 -0.473153,0.202601 -0.496503,0.242427 -0.02354,0.03983 -0.486888,0.239728 -1.030066,0.444257 -2.033658,0.765775 -2.467728,1.402025 -2.133613,3.127312 0.109162,0.564147 0.05396,0.565609 -0.815074,0.02174 z m -0.02066,-4.686241 c -0.276275,-5.353563 -0.401999,-4.829201 1.304471,-5.440207 0.844457,-0.302358 1.56331,-0.559979 1.597452,-0.572477 0.09954,-0.03654 0.04451,5.845711 -0.05611,6.010616 -0.05023,0.08225 -0.40729,0.294301 -0.793457,0.471314 -0.386185,0.177003 -0.925553,0.445935 -1.198641,0.597611 -0.273049,0.151696 -0.559954,0.301983 -0.637508,0.334003 -0.101684,0.04198 -0.161874,-0.347699 -0.216331,-1.40086 z m -1.752862,-1.788755 c -4.38864,-1.627144 -4.193358,-2.664201 0.868891,-4.614492 3.890102,-1.498704 3.858231,-1.476806 3.969368,-2.725872 0.09865,-1.109115 0.134811,-1.115068 2.243167,-0.369304 2.97223,1.051343 2.272236,1.706449 -4.412681,4.129717 -0.716843,0.259842 -1.498846,0.567733 -1.737794,0.684176 -0.238947,0.11646 -0.559616,0.273586 -0.712606,0.349167 -0.535131,0.264373 -0.498926,0.536419 0.131424,0.987701 0.534204,0.382444 0.829461,1.061654 0.829461,1.908088 0,0.06757 -0.27426,-0.01358 -1.17921,-0.349181 z m 1.439476,-6.883526 c 0.01603,-1.066731 -0.03651,-2.488665 -0.115217,-3.159865 -0.306191,-2.615155 -0.243328,-2.930779 0.568681,-2.85553 0.872557,0.08085 2.180484,0.07902 2.749288,-0.0043 0.421911,-0.06158 0.421911,-0.06158 0.349931,1.921992 -0.158318,4.362467 -0.255405,4.710549 -1.446314,5.183684 -0.37999,0.150989 -0.969469,0.404707 -1.309905,0.563836 -0.340435,0.159129 -0.665147,0.289324 -0.72158,0.289324 -0.05646,0 -0.09011,-0.872768 -0.07497,-1.939499 z m -0.942971,-1.000534 c -5.502,-1.610748 -6.947725,-4.846332 -2.668727,-5.972668 2.286851,-0.601948 4.016615,-0.661435 5.35097,-0.184016 2.331871,0.834313 2.438897,0.985122 0.792652,1.11687 -0.727084,0.05814 -2.704699,-0.07571 -3.247095,-0.219815 -0.927548,-0.246479 -2.275899,0.582748 -2.275899,1.399649 0,0.657515 1.439563,2.021987 2.451521,2.323657 0.314668,0.09381 0.403584,0.172729 0.404297,0.358801 5.17e-4,0.131212 0.03651,0.503322 0.07995,0.826934 0.04452,0.331291 0.03063,0.584076 -0.03205,0.578508 -0.06108,-0.0054 -0.446162,-0.107985 -0.8558,-0.2279 z m 2.272978,-5.954356 c -0.419609,-0.15565 -0.845506,-0.156667 -0.845506,-0.0022 0,0.134767 0.186539,0.179389 0.73442,0.175696 0.568913,-0.0043 0.568913,-0.0043 0.111123,-0.173673 z m 1.637034,0.176368 c -0.992114,-0.442144 -1.894979,-0.701311 -2.631483,-0.755369 -0.719942,-0.05279 -0.719942,-0.05279 -0.72044,-0.977496 -0.0018,-3.4440278 1.023337,-3.1474447 -10.879786,-3.1474447 -10.7178588,0 -10.7178588,0 -10.7178588,-1.1767727 0,-1.1767716 0,-1.1767716 38.9138938,-1.1767716 38.913874,0 38.913874,0 38.913874,1.1767716 0,1.1767727 0,1.1767727 -25.985345,1.1767727 -29.060938,0 -26.14619,-0.4251081 -26.147632,3.8136337 -2.4e-4,0.731125 -0.04219,1.326242 -0.0935,1.322471 -0.05131,-0.0032 -0.344461,-0.118865 -0.651663,-0.255783 z"
     id="path832"
     inkscape:export-filename="logoEskulap.svg"
     inkscape:export-xdpi="96"
     inkscape:export-ydpi="96" /></svg>
