<?xml version="1.0" encoding="UTF-8" standalone="no"?>
<!-- Created with Inkscape (http://www.inkscape.org/) -->

<svg
   version="1.1"
   id="svg88202"
   width="47.731068"
   height="35.689373"
   viewBox="0 0 47.731068 35.689373"
   sodipodi:docname="icons8-phone-64.png"
   inkscape:export-filename="..\..\..\Projekty_vue\DESKI_ESKULAP_MENU_MEGA\deski\src\assets\images\logos_\white\icons\phone-icon.svg"
   inkscape:export-xdpi="96"
   inkscape:export-ydpi="96"
   xml:space="preserve"
   xmlns:inkscape="http://www.inkscape.org/namespaces/inkscape"
   xmlns:sodipodi="http://sodipodi.sourceforge.net/DTD/sodipodi-0.dtd"
   xmlns="http://www.w3.org/2000/svg"
   xmlns:svg="http://www.w3.org/2000/svg"><defs
     id="defs88206" /><sodipodi:namedview
     id="namedview88204"
     pagecolor="#ffffff"
     bordercolor="#000000"
     borderopacity="0.25"
     inkscape:showpageshadow="2"
     inkscape:pageopacity="0.0"
     inkscape:pagecheckerboard="0"
     inkscape:deskcolor="#d1d1d1"
     showgrid="false" /><g
     inkscape:groupmode="layer"
     inkscape:label="Image"
     id="g88208"
     transform="translate(-1.0193061,-5.1587634)"><path
       style="fill:#f9f9f9;fill-opacity:1;stroke:none;stroke-width:0.541372"
       d="m 40.568574,5.1587635 v 4.3925387 h 0.533785 l 0.533785,-4.3925387 h -1.06757 m 3.20271,1.0981345 -1.067571,3.2944042 2.135141,-3.2944042 h -1.06757 m 1.06757,4.941605 3.202711,-2.7453355 -3.202711,2.7453355 m -28.290605,26.35523 c 0.991078,3.150933 4.902121,1.939197 7.47299,2.19627 6.909207,0.690946 13.832345,1.098135 20.817615,1.098135 -0.909197,-3.230822 -0.07906,-6.683577 -1.24548,-9.883212 -0.484997,-1.33028 -1.614807,-3.857307 -2.579997,-4.850076 -0.699525,-0.719608 -1.743288,-0.736189 -2.490961,-1.372668 -3.512679,-2.990275 -2.943397,-7.144354 0.444803,-9.700207 -3.73025,6.075319 4.65231,7.137876 9.074346,7.137876 0.317548,-1.773049 1.257863,-4.798356 0.266891,-6.497279 C 46.262885,12.175679 39.819728,10.772592 36.298295,9.9173649 29.174773,8.1872545 18.268477,8.5269615 12.277969,13.577778 c -1.102906,0.929955 -0.998926,2.393878 -2.13514,3.294403 -2.2020223,1.74521 -4.8516246,1.745156 -6.7612778,4.209534 C -3.9057568,30.4857 7.1396491,40.35524 16.548249,37.553733 M 47.50778,21.081715 38.967219,18.885446 c 0.4495,-2.196159 1.491396,-4.861607 -1.156552,-6.314274 -1.216122,-0.667171 -2.373208,0.713403 -3.647513,0.640597 -2.776589,-0.15868 -5.737495,-0.125785 -8.540561,-0.366063 -1.579576,-0.1354 -2.691076,-0.512994 -4.092368,0.549067 -2.582239,1.95715 -0.139853,4.738506 -2.313052,6.314274 -1.692097,1.226946 -4.942848,1.372668 -6.939204,1.372668 0,-1.610139 -0.554709,-4.539688 0.266893,-5.948211 1.37978,-2.365491 6.383001,-3.529185 8.807452,-4.118004 6.696439,-1.6263931 13.925223,-1.0774345 20.28383,1.738677 1.663274,0.736629 4.614945,1.78057 5.604743,3.477462 0.699312,1.198888 0.266893,3.489652 0.266893,4.850076 M 23.487454,13.394773 c 2.237786,2.821658 6.402377,4.943198 10.141915,3.019871 1.523796,-0.783739 2.15078,-2.441099 3.736495,-3.019871 -0.199743,1.951605 -1.566499,4.99761 -3.736495,5.307669 -1.247509,0.178227 -2.462457,-0.915131 -3.736495,-0.915131 -1.918851,0 -3.507875,1.199328 -5.33785,-0.183003 -1.468763,-1.109501 -2.34353,-3.006418 -1.06757,-4.209535 m 10.6757,0.549067 c -0.818239,2.601481 -7.722322,2.601481 -8.540561,0 h 8.540561 m -12.277055,1.098135 3.202709,3.843471 c -0.888271,1.653351 -1.745476,3.980135 -2.846835,5.490673 -1.188312,1.629741 -3.014497,1.851838 -3.914459,3.843472 -0.680255,1.505486 -1.423978,3.297862 -1.690284,4.941605 -0.145402,0.897284 0.215703,2.343803 -0.355874,3.111399 -1.380582,1.854035 -6.5320338,0.975912 -7.2060956,-0.915131 1.0802736,-0.233957 1.7800646,-0.455616 2.6689236,-1.189664 0.702248,-0.57987 1.446503,-1.268126 1.868247,-2.104739 3.355159,-6.655903 -5.8550332,-7.716483 -7.7398814,-1.647202 -0.4093058,1.317981 -0.1025966,2.506712 0,3.843472 -5.47547047,-2.22323 -4.5890882,-10.218637 -0.5337851,-13.54368 2.6665237,-2.186329 5.8716345,-2.75456 5.8716345,1.4642 3.034194,0 9.024702,-0.357829 10.408807,-3.843472 0.507363,-1.277679 -0.471598,-2.180236 0.266893,-3.294404 m 8.006775,3.843471 -2.935818,4.392538 2.402033,4.392539 1.06757,-1.647203 c 0.548945,-0.222866 1.124898,-0.323674 1.601355,-0.73207 3.102785,-2.659683 -0.754772,-3.72081 -1.601355,-6.405804 4.11735,0.780169 8.038002,5.309591 3.20271,8.602072 -1.421629,0.968006 -3.689256,0.920512 -5.33785,0.732073 -3.212798,-0.367217 -5.698529,-4.140463 -3.558585,-7.137876 1.141714,-1.599159 3.371226,-2.05104 5.15994,-2.196269 m -4.270281,1.647202 -0.533785,1.647203 h 1.601356 l -1.067571,-1.647203 m 6.939206,2.19627 c -0.835214,2.889795 -3.968852,2.889795 -4.804065,0 h 4.804065 m -7.472991,1.647201 0.533785,1.647201 h 0.533786 l 0.533785,-1.647201 h -1.601356 m 12.277056,0.549067 2.579942,1.830205 2.224124,4.758602 -6.939206,-0.549067 -17.08112,0.549067 c 0.983179,-3.202599 1.946127,-5.305253 5.33785,-6.03974 1.869689,3.321968 6.072391,5.021385 9.60813,3.202874 1.742381,-0.896133 2.854735,-2.565516 4.27028,-3.751941 m -27.223035,2.287799 c 5.546826,-1.188676 2.82527,6.622795 -1.0675686,7.412408 -1.8646181,0.378199 -2.6981776,-1.360478 -2.5799443,-3.1114 0.1424675,-2.110668 1.6765654,-3.878665 3.6475129,-4.301008 m 33.09467,10.889816 -18.682475,0.549068 -6.672312,-0.732073 -0.266893,-5.307668 20.28383,-0.183005 5.070957,0.823602 0.266893,4.850076 M 26.690164,33.710263 v 3.84347 h 7.47299 l -0.533785,-3.84347 z"
       id="path92552" /></g></svg>
